<svg xmlns="http://www.w3.org/2000/svg" width="420" height="240" viewBox="0 0 420 240" role="img">
      <rect width="420" height="240" fill="#F7F4EC"/>
      <g opacity="0.78"><path d="M-20 12 C87 50 91 -30 178 9 S293 65 442 11" fill="none" stroke="#D6DED3" stroke-width="1.2"/><path d="M-20 23 C87 61 91 -19 178 20 S293 76 442 22" fill="none" stroke="#D6DED3" stroke-width="1.2"/><path d="M-20 34 C87 72 91 -8 178 31 S293 87 442 33" fill="none" stroke="#D6DED3" stroke-width="1.2"/><path d="M-20 45 C87 83 91 3 178 42 S293 98 442 44" fill="none" stroke="#D6DED3" stroke-width="1.2"/><path d="M-20 56 C87 94 91 14 178 53 S293 109 442 55" fill="none" stroke="#D6DED3" stroke-width="1.2"/><path d="M-20 67 C87 105 91 25 178 64 S293 120 442 66" fill="none" stroke="#D6DED3" stroke-width="1.2"/><path d="M-20 78 C87 116 91 36 178 75 S293 131 442 77" fill="none" stroke="#D6DED3" stroke-width="1.2"/></g>
      <path d="M0 223 Q80 201 166 218 T420 214 V240 H0 Z" fill="#DDE7D8" opacity="0.72"/>
      <g transform="translate(94 139) scale(0.55)" fill="none" stroke="#B86F54" stroke-width="3.5" stroke-linecap="round" stroke-linejoin="round"><path d="M-55 48 V-5 Q-55 -58 0 -58 Q55 -58 55 -5 V48 M-18 48 V-6 Q-18 -23 0 -23 Q18 -23 18 -6 V48"/></g><g transform="translate(208 127) scale(0.75)" fill="none" stroke="#28513E" stroke-width="3.5" stroke-linecap="round" stroke-linejoin="round"><path d="M-55 48 V-5 Q-55 -58 0 -58 Q55 -58 55 -5 V48 M-18 48 V-6 Q-18 -23 0 -23 Q18 -23 18 -6 V48"/></g><g transform="translate(323 144) scale(0.58)" fill="none" stroke="#91A88A" stroke-width="3.5" stroke-linecap="round" stroke-linejoin="round"><path d="M-55 48 V-5 Q-55 -58 0 -58 Q55 -58 55 -5 V48 M-18 48 V-6 Q-18 -23 0 -23 Q18 -23 18 -6 V48"/></g><circle cx="208" cy="40" r="10" fill="#C6A263" stroke="#F7F4EC" stroke-width="3"/><polyline points="86,197 206,178 326,199" fill="none" stroke="#28513E" stroke-width="3" stroke-linecap="round" stroke-linejoin="round"/>
    </svg>