<svg xmlns="http://www.w3.org/2000/svg" width="420" height="240" viewBox="0 0 420 240" role="img">
      <rect width="420" height="240" fill="#F7F4EC"/>
      <g opacity="0.78"><path d="M-20 12 C87 50 91 -30 178 9 S293 65 442 11" fill="none" stroke="#D6DED3" stroke-width="1.2"/><path d="M-20 23 C87 61 91 -19 178 20 S293 76 442 22" fill="none" stroke="#D6DED3" stroke-width="1.2"/><path d="M-20 34 C87 72 91 -8 178 31 S293 87 442 33" fill="none" stroke="#D6DED3" stroke-width="1.2"/><path d="M-20 45 C87 83 91 3 178 42 S293 98 442 44" fill="none" stroke="#D6DED3" stroke-width="1.2"/><path d="M-20 56 C87 94 91 14 178 53 S293 109 442 55" fill="none" stroke="#D6DED3" stroke-width="1.2"/><path d="M-20 67 C87 105 91 25 178 64 S293 120 442 66" fill="none" stroke="#D6DED3" stroke-width="1.2"/><path d="M-20 78 C87 116 91 36 178 75 S293 131 442 77" fill="none" stroke="#D6DED3" stroke-width="1.2"/></g>
      <path d="M0 223 Q80 201 166 218 T420 214 V240 H0 Z" fill="#DDE7D8" opacity="0.72"/>
      <g transform="translate(198 107) scale(1.04)" fill="none" stroke="#28513E" stroke-width="3.5" stroke-linecap="round" stroke-linejoin="round"><rect x="-53" y="-37" width="106" height="74" rx="7"/><path d="M-51 -34 L0 4 L51 -34 M-51 34 L-14 -7 M51 34 L14 -7"/></g><g transform="translate(290 65) scale(0.44)" fill="none" stroke="#B86F54" stroke-width="3.5" stroke-linecap="round" stroke-linejoin="round"><circle r="47"/><path d="M-23 0 L-5 17 L28 -22"/></g><polyline points="77,177 143,158 205,180 275,168 345,144" fill="none" stroke="#C6A263" stroke-width="3" stroke-linecap="round" stroke-linejoin="round" stroke-dasharray="3 8"/>
    </svg>